<svg xmlns="http://www.w3.org/2000/svg" style="display:none">
  <!-- Icon sprite. Use as: <svg class="ico"><use href="/assets/icons.svg#name"/></svg>
       All strokes inherit currentColor; 24x24 grid. -->

  <symbol id="home" viewBox="0 0 24 24" fill="none" stroke="currentColor" stroke-width="1.8" stroke-linecap="round" stroke-linejoin="round">
    <path d="M3 10.5 12 3l9 7.5"/><path d="M5 9.8V20a1 1 0 0 0 1 1h12a1 1 0 0 0 1-1V9.8"/><path d="M9.5 21v-6h5v6"/>
  </symbol>

  <!-- A yagna is a fire ritual, so the Maha Yagna category is a flame.
       This symbol was removed once as "defined but never referenced":
       the reference is in server/routes/poojas.js CATEGORIES, so the
       name arrives from the API and no scan of public/ could see it.
       The Maha Yagna card had an empty disc from then until now. -->
  <symbol id="flame" viewBox="0 0 24 24" fill="none" stroke="currentColor" stroke-width="1.8" stroke-linecap="round" stroke-linejoin="round">
    <path d="M12 2.8c3.2 3.1 5.2 5.7 5.2 8.6a5.2 5.2 0 0 1-10.4 0c0-1.6.7-3 1.9-4.4.5 1 1.1 1.7 1.8 2.1.6-2.2.4-4.2-.5-6.3Z"/>
    <path d="M12 21.2a3 3 0 0 1-3-3c0-1.3.9-2.4 3-4 2.1 1.6 3 2.7 3 4a3 3 0 0 1-3 3Z"/>
  </symbol>

  <symbol id="diya" viewBox="0 0 24 24" fill="none" stroke="currentColor" stroke-width="1.8" stroke-linecap="round" stroke-linejoin="round">
    <path d="M12 3c1.8 2.3 1.8 4-.0 5.6C10.2 7 10.2 5.3 12 3Z"/>
    <path d="M3 13h18c-.6 4-4.4 6.8-9 6.8S3.6 17 3 13Z"/><path d="M12 19.8V21"/>
  </symbol>

  <symbol id="book" viewBox="0 0 24 24" fill="none" stroke="currentColor" stroke-width="1.8" stroke-linecap="round" stroke-linejoin="round">
    <path d="M3 4.5A1.5 1.5 0 0 1 4.5 3H9a3 3 0 0 1 3 3v14a2.5 2.5 0 0 0-2.5-2.5H3Z"/>
    <path d="M21 4.5A1.5 1.5 0 0 0 19.5 3H15a3 3 0 0 0-3 3v14a2.5 2.5 0 0 1 2.5-2.5H21Z"/>
  </symbol>

  <symbol id="rupee" viewBox="0 0 24 24" fill="none" stroke="currentColor" stroke-width="1.8" stroke-linecap="round" stroke-linejoin="round">
    <path d="M7 4h10"/><path d="M7 8.5h10"/><path d="M7 13h4.5c2.5 0 4.5-2 4.5-4.5"/><path d="M7 13l7 7"/>
  </symbol>

  <symbol id="users" viewBox="0 0 24 24" fill="none" stroke="currentColor" stroke-width="1.8" stroke-linecap="round" stroke-linejoin="round">
    <circle cx="9" cy="8" r="3.2"/><path d="M2.5 20a6.5 6.5 0 0 1 13 0"/>
    <path d="M16 5.2a3.2 3.2 0 0 1 0 5.6"/><path d="M17.5 14.3A6.5 6.5 0 0 1 21.5 20"/>
  </symbol>

  <symbol id="upload" viewBox="0 0 24 24" fill="none" stroke="currentColor" stroke-width="1.8" stroke-linecap="round" stroke-linejoin="round">
    <path d="M12 15.5V3.5"/><path d="M7.8 7.7 12 3.5l4.2 4.2"/>
    <path d="M4 15v4a2 2 0 0 0 2 2h12a2 2 0 0 0 2-2v-4"/>
  </symbol>
  <symbol id="sheet" viewBox="0 0 24 24" fill="none" stroke="currentColor" stroke-width="1.8" stroke-linecap="round" stroke-linejoin="round">
    <rect x="3.2" y="4" width="17.6" height="16" rx="2"/>
    <path d="M3.2 9h17.6"/><path d="M9 9v11"/><path d="M3.2 14.5h17.6"/>
  </symbol>

  <symbol id="phone" viewBox="0 0 24 24" fill="none" stroke="currentColor" stroke-width="1.8" stroke-linecap="round" stroke-linejoin="round">
    <path d="M6.2 3.5h3l1.4 3.6-2 1.4a12 12 0 0 0 5.9 5.9l1.4-2 3.6 1.4v3a2 2 0 0 1-2.2 2A16.5 16.5 0 0 1 4.2 5.7a2 2 0 0 1 2-2.2Z"/>
  </symbol>

  <symbol id="temple" viewBox="0 0 24 24" fill="none" stroke="currentColor" stroke-width="1.8" stroke-linecap="round" stroke-linejoin="round">
    <path d="M12 2.5 15 6H9l3-3.5Z"/><path d="M6 10h12"/><path d="M7 10v11"/><path d="M17 10v11"/>
    <path d="M4 21h16"/><path d="M10.5 21v-4.5a1.5 1.5 0 0 1 3 0V21"/><path d="M7.5 10 12 6l4.5 4"/>
  </symbol>

  <symbol id="calendar" viewBox="0 0 24 24" fill="none" stroke="currentColor" stroke-width="1.8" stroke-linecap="round" stroke-linejoin="round">
    <rect x="3" y="5" width="18" height="16" rx="2"/><path d="M3 10h18"/><path d="M8 3v4"/><path d="M16 3v4"/>
  </symbol>

  <symbol id="gift" viewBox="0 0 24 24" fill="none" stroke="currentColor" stroke-width="1.8" stroke-linecap="round" stroke-linejoin="round">
    <rect x="3" y="9" width="18" height="12" rx="1.5"/><path d="M3 13h18"/><path d="M12 9v12"/>
    <path d="M12 9S10.5 4.5 8 4.5a2.2 2.2 0 0 0 0 4.5"/><path d="M12 9s1.5-4.5 4-4.5a2.2 2.2 0 0 1 0 4.5"/>
  </symbol>

  <symbol id="mail" viewBox="0 0 24 24" fill="none" stroke="currentColor" stroke-width="1.8" stroke-linecap="round" stroke-linejoin="round">
    <rect x="2.5" y="5" width="19" height="14" rx="2"/><path d="m3 7 9 6 9-6"/>
  </symbol>

  <symbol id="settings" viewBox="0 0 24 24" fill="none" stroke="currentColor" stroke-width="1.8" stroke-linecap="round" stroke-linejoin="round">
    <circle cx="12" cy="12" r="3"/>
    <path d="M19.4 14.5a1.7 1.7 0 0 0 .34 1.87l.06.06a2 2 0 1 1-2.83 2.83l-.06-.06a1.7 1.7 0 0 0-1.87-.34 1.7 1.7 0 0 0-1.03 1.56V21a2 2 0 1 1-4 0v-.1A1.7 1.7 0 0 0 8.9 19.3a1.7 1.7 0 0 0-1.87.34l-.06.06a2 2 0 1 1-2.83-2.83l.06-.06a1.7 1.7 0 0 0 .34-1.87 1.7 1.7 0 0 0-1.56-1.03H3a2 2 0 1 1 0-4h.1A1.7 1.7 0 0 0 4.7 8.9a1.7 1.7 0 0 0-.34-1.87l-.06-.06a2 2 0 1 1 2.83-2.83l.06.06a1.7 1.7 0 0 0 1.87.34H9.1a1.7 1.7 0 0 0 1.03-1.56V3a2 2 0 1 1 4 0v.1a1.7 1.7 0 0 0 1.03 1.56 1.7 1.7 0 0 0 1.87-.34l.06-.06a2 2 0 1 1 2.83 2.83l-.06.06a1.7 1.7 0 0 0-.34 1.87V9.1a1.7 1.7 0 0 0 1.56 1.03H21a2 2 0 1 1 0 4h-.1a1.7 1.7 0 0 0-1.5 1.37Z"/>
  </symbol>

  <symbol id="shield" viewBox="0 0 24 24" fill="none" stroke="currentColor" stroke-width="1.8" stroke-linecap="round" stroke-linejoin="round">
    <path d="M12 2.8 20 6v6c0 4.6-3.3 8.3-8 9.2-4.7-.9-8-4.6-8-9.2V6l8-3.2Z"/><path d="m9 12 2 2 4-4"/>
  </symbol>

  <symbol id="plus" viewBox="0 0 24 24" fill="none" stroke="currentColor" stroke-width="2" stroke-linecap="round">
    <path d="M12 5v14"/><path d="M5 12h14"/>
  </symbol>

  <symbol id="search" viewBox="0 0 24 24" fill="none" stroke="currentColor" stroke-width="1.8" stroke-linecap="round">
    <circle cx="11" cy="11" r="7"/><path d="m20 20-3.6-3.6"/>
  </symbol>

  <symbol id="menu" viewBox="0 0 24 24" fill="none" stroke="currentColor" stroke-width="1.8" stroke-linecap="round">
    <path d="M4 7h16"/><path d="M4 12h16"/><path d="M4 17h16"/>
  </symbol>

  <symbol id="close" viewBox="0 0 24 24" fill="none" stroke="currentColor" stroke-width="2" stroke-linecap="round">
    <path d="M6 6 18 18"/><path d="M18 6 6 18"/>
  </symbol>

  <symbol id="chevron-right" viewBox="0 0 24 24" fill="none" stroke="currentColor" stroke-width="2" stroke-linecap="round" stroke-linejoin="round">
    <path d="m9 5 7 7-7 7"/>
  </symbol>

  <symbol id="chevron-left" viewBox="0 0 24 24" fill="none" stroke="currentColor" stroke-width="2" stroke-linecap="round" stroke-linejoin="round">
    <path d="m15 5-7 7 7 7"/>
  </symbol>

  <symbol id="check" viewBox="0 0 24 24" fill="none" stroke="currentColor" stroke-width="2.2" stroke-linecap="round" stroke-linejoin="round">
    <path d="m5 12.5 4.5 4.5L19 7"/>
  </symbol>

  <symbol id="clock" viewBox="0 0 24 24" fill="none" stroke="currentColor" stroke-width="1.8" stroke-linecap="round" stroke-linejoin="round">
    <circle cx="12" cy="12" r="9"/><path d="M12 7v5.2l3.2 2"/>
  </symbol>

  <symbol id="alert" viewBox="0 0 24 24" fill="none" stroke="currentColor" stroke-width="1.8" stroke-linecap="round" stroke-linejoin="round">
    <path d="M12 3.6 21.2 19a1 1 0 0 1-.87 1.5H3.67A1 1 0 0 1 2.8 19Z"/><path d="M12 9.5v4.2"/><path d="M12 17.2h.01"/>
  </symbol>

  <symbol id="seat" viewBox="0 0 24 24" fill="none" stroke="currentColor" stroke-width="1.8" stroke-linecap="round" stroke-linejoin="round">
    <path d="M4 16.5h16"/><path d="M5.5 16.5V19"/><path d="M18.5 16.5V19"/>
    <path d="M6.5 16.5v-2a2 2 0 0 1 2-2h7a2 2 0 0 1 2 2v2"/><path d="M9 12.5V9a2 2 0 0 1 2-2h2a2 2 0 0 1 2 2v3.5"/>
  </symbol>

  <symbol id="trash" viewBox="0 0 24 24" fill="none" stroke="currentColor" stroke-width="1.8" stroke-linecap="round" stroke-linejoin="round">
    <path d="M4 7h16"/><path d="M9 7V5a1 1 0 0 1 1-1h4a1 1 0 0 1 1 1v2"/>
    <path d="M6 7l1 13a1 1 0 0 0 1 1h8a1 1 0 0 0 1-1l1-13"/>
  </symbol>

  <symbol id="edit" viewBox="0 0 24 24" fill="none" stroke="currentColor" stroke-width="1.8" stroke-linecap="round" stroke-linejoin="round">
    <path d="M4 20h4L19 9a2.1 2.1 0 0 0-3-3L5 17v3Z"/><path d="m15 6 3 3"/>
  </symbol>

  <symbol id="print" viewBox="0 0 24 24" fill="none" stroke="currentColor" stroke-width="1.8" stroke-linecap="round" stroke-linejoin="round">
    <path d="M7 8V3h10v5"/><rect x="3" y="8" width="18" height="8" rx="2"/><path d="M7 14h10v7H7z"/>
  </symbol>

  <symbol id="history" viewBox="0 0 24 24" fill="none" stroke="currentColor" stroke-width="1.8" stroke-linecap="round" stroke-linejoin="round">
    <path d="M3.5 12a8.5 8.5 0 1 0 2.6-6.1"/><path d="M3 4v4h4"/><path d="M12 7.5V12l3 1.8"/>
  </symbol>

  <!-- KPI icons. A figure's mark should say which figure it is without
       the label: a person with a tick for people signed up, a wallet
       for money actually in hand, a target for the amount aimed at,
       and a rising line for anything above it. -->

  <symbol id="user-check" viewBox="0 0 24 24" fill="none" stroke="currentColor" stroke-width="1.8" stroke-linecap="round" stroke-linejoin="round">
    <circle cx="9.5" cy="8" r="3.6"/>
    <path d="M3 20.5a6.5 6.5 0 0 1 13 0"/>
    <path d="m16.8 9.7 2 2 3.7-3.9"/>
  </symbol>

  <symbol id="wallet" viewBox="0 0 24 24" fill="none" stroke="currentColor" stroke-width="1.8" stroke-linecap="round" stroke-linejoin="round">
    <path d="M19 8.5V6.6A1.6 1.6 0 0 0 17.4 5H5.6A2.6 2.6 0 0 0 3 7.6v8.8A2.6 2.6 0 0 0 5.6 19h11.8a1.6 1.6 0 0 0 1.6-1.6v-1.9"/>
    <path d="M21 11.2h-4.4a1.8 1.8 0 0 0 0 3.6H21a.6.6 0 0 0 .6-.6v-2.4a.6.6 0 0 0-.6-.6Z"/>
  </symbol>

  <symbol id="target" viewBox="0 0 24 24" fill="none" stroke="currentColor" stroke-width="1.8" stroke-linecap="round" stroke-linejoin="round">
    <circle cx="12" cy="12" r="8.5"/><circle cx="12" cy="12" r="4.4"/>
    <circle cx="12" cy="12" r="1.1" fill="currentColor" stroke="none"/>
  </symbol>

  <symbol id="trending-up" viewBox="0 0 24 24" fill="none" stroke="currentColor" stroke-width="1.8" stroke-linecap="round" stroke-linejoin="round">
    <path d="M3 16.8 9.2 10.6l3.8 3.8L21 6.4"/><path d="M15.2 6.4H21v5.8"/>
  </symbol>
</svg>
